<?xml version="1.0" encoding="utf-8"?>
<!-- Svg Vector Icons : http://www.onlinewebfonts.com/icon -->
<!DOCTYPE svg PUBLIC "-//W3C//DTD SVG 1.1//EN" "http://www.w3.org/Graphics/SVG/1.1/DTD/svg11.dtd">
<svg version="1.1" xmlns="http://www.w3.org/2000/svg" xmlns:xlink="http://www.w3.org/1999/xlink" x="0px" y="0px" viewBox="0 0 1000 1000" enable-background="new 0 0 1000 1000" xml:space="preserve">
<metadata> Svg Vector Icons : http://www.onlinewebfonts.com/icon </metadata>
<g><path d="M988.9,713.4c-0.7,0-12.2,3.2-34.5,9.7c2.9,23,4.3,35.6,4.3,37.7c0.7,72.6,0.7,129.3,0,170.2c-0.7,5-2.2,10.8-4.3,17.2c-2.2,6.5-4.3,10.4-6.5,11.8c-1.4,2.9-17.1,4.5-46.9,4.8c-29.8,0.4-46.5-0.5-50.1-2.7c-6.5-4.3-10.6-10.2-12.4-17.8c-1.8-7.5-2.2-14.5-1.1-21c1.1-6.5,0.5-13.3-1.6-20.5h-293c-1.4,3.6-2.7,8.2-3.8,14c-1.1,5.7-2,10.9-2.7,15.6c-0.7,4.7-1.6,9.2-2.7,13.5c-1.1,4.3-2.2,7.9-3.2,10.8c-1.1,2.9-2.3,4.7-3.8,5.4c-2.9,0.7-7.2,1.4-12.9,2.2c-5.8,0.7-12,1.2-18.9,1.6c-6.8,0.4-14.2,0.5-22.1,0.5c-7.9,0-15.1-0.2-21.5-0.5c-6.5-0.4-11.9-0.9-16.2-1.6c-4.3-0.7-6.8-1.4-7.5-2.2c-6.5-4.3-10.4-15.5-11.9-33.4c-0.7-9.3-0.7-33.4,0-72.2c0-11.5,0.7-56.4,2.2-134.7c-5.8-1.4-16.5-4.3-32.3-8.6c-0.7-2.2-1.1-3.6-1.1-4.3v-5.4c0-2.2,0.4-3.9,1.1-5.4c4.3-14.4,10.4-25.1,18.3-32.3c7.9-7.2,18.7-9.7,32.3-7.5c2.2,0,4.7-1.4,7.5-4.3c2.9-2.9,4.7-5.7,5.4-8.6c15.8-41.6,25.9-70,30.2-85.1c10.8-40.9,41.3-66.1,91.6-75.4c2.2-0.7,19-3.6,50.6-8.6c44.5-6.5,88-6.5,130.4,0c54.6,11.5,84.4,18,89.4,19.4c10.8,2.9,19.9,8.1,27.5,15.6c7.5,7.5,13.1,16.7,16.7,27.5c12.9,36.6,25.9,71.8,38.8,105.6c1.4,2.9,3.6,5.9,6.5,9.2c2.9,3.2,5.4,4.8,7.5,4.8c13.6-1.4,24.2,0.9,31.8,7c7.5,6.1,13.8,15.6,18.9,28.6C990.4,699,990.4,705.5,988.9,713.4z M478.3,746.8c-17.2-5-27.7,0-31.2,15.1c-5.8,26.6,0.7,42,19.4,46.3c2.9,0.7,18.7,2.5,47.4,5.4c13.6,0,24.4-1.1,32.3-3.2c10.1-2.2,16.5-6.8,19.4-14c0.7-2.2-0.2-5.6-2.7-10.2c-2.5-4.7-5.2-7.4-8.1-8.1c-8.6-4.3-17.1-8.1-25.3-11.3c-8.3-3.2-16.7-6.6-25.3-10.2C495.5,752.9,486.9,749.7,478.3,746.8z M874.2,636.4c-4.7-14-8.6-26-11.9-36.1c-3.2-10.1-5.9-19.4-8.1-28c-7.2-26.6-24.1-40.6-50.6-42c-73.3-2.9-136.1-4.7-188.5-5.4c-14.4,0-35.2,3.2-62.5,9.7c-1.4,0.7-2.9,1.3-4.3,1.6c-1.4,0.4-2.9,0.9-4.3,1.6c-1.4,0.7-2.9,1.6-4.3,2.7c-1.4,1.1-2.9,2-4.3,2.7l-2.2,4.3c-1.4,0.7-2.2,1.8-2.2,3.2c-5,10.8-9.5,22.1-13.5,33.9c-4,11.9-9.3,27.3-16.2,46.3c-6.8,19-11.3,31.4-13.5,37.2c135,27.3,267.2,27.3,396.5,0C882.3,661,878.9,650.4,874.2,636.4z M928.6,774.8v-7.5c-0.7-7.2-3.1-12.9-7-17.2c-4-4.3-8.8-5.4-14.5-3.2c-34.5,10.8-65,22.3-91.6,34.5c-6.5,3.6-9,8.8-7.5,15.6c1.4,6.8,6.1,11,14,12.4c3.6,0.7,7.5,1.4,11.9,2.2c4.3,0.7,9.5,1.1,15.6,1.1c6.1,0,10.6,0.4,13.5,1.1c29.4-3.6,45.2-5.7,47.4-6.5c4.3-0.7,7.5-2,9.7-3.8c2.2-1.8,3.9-3.4,5.4-4.8c1.4-1.4,2.3-3.9,2.7-7.5c0.4-3.6,0.5-6.1,0.5-7.5V774.8z M694.7,179.9c0-18.4-13.8-25.3-29.2-25.3h-56.2c0,0,0-25.9,0-31c0-12.1,0-32.5,0-32.5s19.9,0,85,0c36.7,0,57.8,20.9,57.8,47.8c0,77.7,0,295.5,0,295.5h-57.3C694.7,434.3,694.7,251.2,694.7,179.9z M609.3,420.2c0,4.3-1.5,8-4.3,10.9c-2.9,2.9-6.5,4.3-10.8,4.3H166.9c-4.3,0-7.9-1.4-10.8-4.3c-2.9-2.9-4.3-6.5-4.3-10.9V392c0-3.6,1.4-6.9,4.3-9.8c2.9-2.9,6.5-4.3,10.8-4.3h427.3c4.3,0,7.9,1.5,10.8,4.3c2.9,2.9,4.3,6.2,4.3,9.8L609.3,420.2L609.3,420.2z M566,201.8c-4.3,2.9-9,4.3-14.1,4.3h-29.2c-5.1,0-9.7-1.4-14.1-4.3c-4.3-2.9-7.8-6.5-10.3-10.9c-2.5-4.3-3.8-9-3.8-14.1V62.8c0-8,2.9-14.8,8.7-20.6c5.8-5.8,12.3-8.7,19.5-8.7H552c7.9,0,14.6,2.9,20,8.7c5.4,5.8,8.1,12.7,8.1,20.6v114.1c0,5.1-1.3,9.8-3.8,14.1C573.8,195.3,570.3,198.9,566,201.8z M294.5,91h172v57.6h-172V91z M258.3,196.9c-2.5,2.5-5.6,4.7-9.2,6.5c-3.6,1.8-7.2,2.7-10.8,2.7h-29.2c-7.9,0-14.6-2.9-20-8.7c-5.4-5.8-8.1-12.7-8.1-20.6V62.8c0-8,2.7-14.8,8.1-20.6c5.4-5.8,12.1-8.7,20-8.7h29.2c7.9,0,14.6,2.9,20,8.7c5.4,5.8,8.1,12.7,8.1,20.6v114.1c0,4.3-0.7,8.2-2.2,11.4C262.8,191.5,260.8,194.4,258.3,196.9z M341,663.6c-0.7,0.7-1.8,1.1-3.2,1.1H158.2c-4.3,0-6.5-5.1-6.5-15.2v-28.2c0-9.4,2.2-14.1,6.5-14.1h179.6c4.3,0,6.5,4.7,6.5,14.1v28.2c0,2.2-0.2,4.2-0.5,6c-0.4,1.8-0.7,3.4-1.1,4.9C342.3,661.8,341.7,662.9,341,663.6z M66.3,195.2c0,85.2,0,443.6,0,569.2c0,69.8,29,72.7,66.2,72c77.2,0,248.6,0,248.6,0v57.6c0,0-211.3,0-302.1,0c-16.9,0-68.2-1.2-68.9-77.2c0-137,0-528.7,0-656.4C11.8,141.2,20.7,91,59.5,91c32.9,0,92.3,0,92.3,0v57.6c0,0-21.2,0-37.6,0C128.2,148.6,66.3,139.3,66.3,195.2z M10,156.9c0,1,0,2.4,0,3.4c0,0.1,0,0.3,0,0.4C10,159.5,10,158.5,10,156.9z"/></g>
</svg>