<svg width="71" height="59" xmlns="http://www.w3.org/2000/svg" xmlns:xlink="http://www.w3.org/1999/xlink" xmlns:svgjs="http://svgjs.com/svgjs" viewBox="290 793 71 59"><svg width="71" height="8" xmlns="http://www.w3.org/2000/svg" xmlns:xlink="http://www.w3.org/1999/xlink" xmlns:svgjs="http://svgjs.com/svgjs" viewBox="0 0.5 71 7" fill="#ecf9fd" x="290" y="844"><svg xmlns="http://www.w3.org/2000/svg" xmlns:xlink="http://www.w3.org/1999/xlink" width="71" height="8" viewBox="0 0.669 71 7"><path paint-order="stroke fill markers" fill-rule="evenodd" d="M35.5 7.67C15.868 7.67 0 6.104 0 4.17 0 2.233 15.868.67 35.5.67 55.13.67 71 2.233 71 4.17c0 1.935-15.869 3.5-35.5 3.5z"/></svg></svg><svg width="50" height="46" xmlns="http://www.w3.org/2000/svg" xmlns:xlink="http://www.w3.org/1999/xlink" xmlns:svgjs="http://svgjs.com/svgjs" viewBox="295 793 50 46" x="295" y="793"><svg width="38" height="30" xmlns="http://www.w3.org/2000/svg" xmlns:xlink="http://www.w3.org/1999/xlink" xmlns:svgjs="http://svgjs.com/svgjs" viewBox="0 0.364 38 29.271" fill="#0281b2" x="307" y="809"><svg xmlns="http://www.w3.org/2000/svg" xmlns:xlink="http://www.w3.org/1999/xlink" width="38" height="30" viewBox="0.113 0.635 36.935 28.451"><path paint-order="stroke fill markers" fill-rule="evenodd" d="M32.865 22.783c2.706-2.902 4.18-6.49 4.18-10.229 0-4.677-2.31-8.914-6.011-11.92-.085 10.718-10.163 19.434-22.542 19.434H.112c3.241 5.345 9.826 9.018 17.397 9.018h18.033c.611 0 1.156-.367 1.391-.93a1.487 1.487 0 0 0-.33-1.635l-3.738-3.738z"/></svg></svg><svg width="41" height="34" xmlns="http://www.w3.org/2000/svg" xmlns:xlink="http://www.w3.org/1999/xlink" xmlns:svgjs="http://svgjs.com/svgjs" viewBox="0.408 0 40.184 34" fill="#d9f3fc" stroke-miterlimit="100" stroke="#00357b" stroke-width="2" x="295" y="793"><svg xmlns="http://www.w3.org/2000/svg" xmlns:xlink="http://www.w3.org/1999/xlink" width="41" height="34" viewBox="0.952 0 39.077 33.063"><path paint-order="stroke fill markers" fill-rule="evenodd" d="M20.492 0C9.718 0 .954 7.411.954 16.531c0 3.739 1.475 7.317 4.18 10.23l-3.738 3.738a1.493 1.493 0 0 0-.329 1.634c.235.563.78.93 1.39.93h18.035c10.773 0 19.536-7.411 19.536-16.532 0-9.12-8.763-16.53-19.536-16.53z"/></svg></svg><svg width="23" height="10" xmlns="http://www.w3.org/2000/svg" xmlns:xlink="http://www.w3.org/1999/xlink" xmlns:svgjs="http://svgjs.com/svgjs" viewBox="304 805 23 10" x="304" y="805"><svg width="23" height="4" xmlns="http://www.w3.org/2000/svg" xmlns:xlink="http://www.w3.org/1999/xlink" xmlns:svgjs="http://svgjs.com/svgjs" viewBox="0 0.357 23 3.286" fill="#fafafa" x="304" y="805"><svg xmlns="http://www.w3.org/2000/svg" xmlns:xlink="http://www.w3.org/1999/xlink" width="23" height="4" viewBox="0.971 0.023 21.04 3.006"><path paint-order="stroke fill markers" fill-rule="evenodd" d="M20.509.023H2.474C1.648.023.971.699.971 1.526c0 .826.677 1.503 1.503 1.503H20.51c.826 0 1.502-.677 1.502-1.503 0-.827-.676-1.503-1.502-1.503z"/></svg></svg><svg width="17" height="4" xmlns="http://www.w3.org/2000/svg" xmlns:xlink="http://www.w3.org/1999/xlink" xmlns:svgjs="http://svgjs.com/svgjs" viewBox="0 0.3 17 3.4" fill="#fafafa" x="304" y="811"><svg xmlns="http://www.w3.org/2000/svg" width="17" height="4" viewBox="0.971 0.034 15.029 3.006"><path paint-order="stroke fill markers" fill-rule="evenodd" d="M14.497.034H2.474C1.648.034.971.711.971 1.537c0 .827.677 1.503 1.503 1.503h12.023c.827 0 1.503-.676 1.503-1.503 0-.826-.676-1.503-1.503-1.503z"/></svg></svg></svg></svg></svg>