<svg width="71" height="58" xmlns="http://www.w3.org/2000/svg" xmlns:xlink="http://www.w3.org/1999/xlink" xmlns:svgjs="http://svgjs.com/svgjs" viewBox="64 794 71 58"><svg width="56" height="41" xmlns="http://www.w3.org/2000/svg" xmlns:xlink="http://www.w3.org/1999/xlink" xmlns:svgjs="http://svgjs.com/svgjs" viewBox="71 794 56 41" x="71" y="794"><svg width="50" height="30" xmlns="http://www.w3.org/2000/svg" xmlns:xlink="http://www.w3.org/1999/xlink" xmlns:svgjs="http://svgjs.com/svgjs" viewBox="0 0.185 50 29.63" fill="#ecf9fd" x="72" y="794"><svg xmlns="http://www.w3.org/2000/svg" xmlns:xlink="http://www.w3.org/1999/xlink" width="50" height="30" viewBox="0.336 0 49.443 29.3"><path paint-order="stroke fill markers" fill-rule="evenodd" d="M3.335 0H46.78c1.659 0 3 1.34 3 3v23.3c0 1.659-1.341 3-3 3H3.335c-1.658 0-3-1.341-3-3V3c0-1.66 1.342-3 3-3z"/></svg></svg><svg width="56" height="41" xmlns="http://www.w3.org/2000/svg" xmlns:xlink="http://www.w3.org/1999/xlink" xmlns:svgjs="http://svgjs.com/svgjs" viewBox="71 794 56 41" x="71" y="794"><svg width="56" height="41" xmlns="http://www.w3.org/2000/svg" xmlns:xlink="http://www.w3.org/1999/xlink" xmlns:svgjs="http://svgjs.com/svgjs" viewBox="71 794 56 41" x="71" y="794"><svg width="56" height="41" xmlns="http://www.w3.org/2000/svg" xmlns:xlink="http://www.w3.org/1999/xlink" xmlns:svgjs="http://svgjs.com/svgjs" viewBox="0.242 0 55.516 41" fill="#0281b2" x="71" y="794"><svg xmlns="http://www.w3.org/2000/svg" xmlns:xlink="http://www.w3.org/1999/xlink" width="56" height="41" viewBox="0.725 0 55.27 40.819"><path paint-order="stroke fill markers" fill-rule="evenodd" d="M3.104 30.19l-.236 1.954a2.954 2.954 0 0 0 2.578 3.288l44.314 5.365a2.953 2.953 0 0 0 3.289-2.578l2.925-24.156a2.955 2.955 0 0 0-2.579-3.289l-2.122-.256V2.92A2.924 2.924 0 0 0 48.353 0H3.645a2.924 2.924 0 0 0-2.92 2.92v24.4a2.925 2.925 0 0 0 2.378 2.87zm48.169-2.87V11.877l1.96.237a1.606 1.606 0 0 1 1.402 1.788L51.71 38.057a1.61 1.61 0 0 1-1.788 1.402L5.608 34.094a1.607 1.607 0 0 1-1.402-1.788l.25-2.064h10.335l32.283 3.718a.674.674 0 0 0 .154-1.34l-20.654-2.378h21.778a2.924 2.924 0 0 0 2.92-2.921zm-49.2-24.4a1.574 1.574 0 0 1 1.573-1.572h44.706c.868 0 1.572.704 1.573 1.573v24.4c-.001.868-.705 1.572-1.573 1.573H3.646a1.574 1.574 0 0 1-1.573-1.573V2.92z"/></svg></svg><svg width="12" height="12" xmlns="http://www.w3.org/2000/svg" xmlns:xlink="http://www.w3.org/1999/xlink" xmlns:svgjs="http://svgjs.com/svgjs" viewBox="0 0.001 12 11.999" fill="#017387" x="77" y="797"><svg xmlns="http://www.w3.org/2000/svg" xmlns:xlink="http://www.w3.org/1999/xlink" width="12" height="12" viewBox="0.613 0.575 10.593 10.591"><path paint-order="stroke fill markers" fill-rule="evenodd" d="M1.473 7.722h2.585v2.584c0 .475.385.86.86.86h1.984c.474 0 .86-.385.86-.86V7.722h2.584a.86.86 0 0 0 .86-.86V4.878a.86.86 0 0 0-.86-.86H7.762V1.434a.861.861 0 0 0-.86-.86H4.918a.86.86 0 0 0-.86.86v2.584H1.473a.86.86 0 0 0-.86.86v1.984c0 .475.385.86.86.86zm.488-2.356h2.584a.86.86 0 0 0 .86-.86V1.923h1.008v2.583c0 .475.385.86.86.86h2.584v1.008H7.273a.861.861 0 0 0-.86.86v2.584H5.405V7.234a.861.861 0 0 0-.86-.86H1.962L1.96 5.366z"/></svg></svg><svg width="8" height="8" xmlns="http://www.w3.org/2000/svg" xmlns:xlink="http://www.w3.org/1999/xlink" xmlns:svgjs="http://svgjs.com/svgjs" fill="#017387" x="110" y="799"><svg xmlns="http://www.w3.org/2000/svg" xmlns:xlink="http://www.w3.org/1999/xlink" width="8" height="8" viewBox="0.888 0.625 6.491 6.491"><path paint-order="stroke fill markers" fill-rule="evenodd" d="M4.134 7.116a3.245 3.245 0 1 0 0-6.49 3.245 3.245 0 0 0 0 6.49zm0-5.143a1.898 1.898 0 1 1 0 3.795 1.898 1.898 0 0 1 0-3.795z"/></svg></svg><svg width="39" height="2" xmlns="http://www.w3.org/2000/svg" xmlns:xlink="http://www.w3.org/1999/xlink" xmlns:svgjs="http://svgjs.com/svgjs" viewBox="0 0.374 39 1.251" fill="#0281b2" x="78" y="818"><svg xmlns="http://www.w3.org/2000/svg" xmlns:xlink="http://www.w3.org/1999/xlink" width="39" height="2" viewBox="0.237 0.62 38.049 1.221"><path paint-order="stroke fill markers" fill-rule="evenodd" d="M.847.62h36.828a.61.61 0 1 1 0 1.22H.847a.61.61 0 1 1 0-1.22z"/></svg></svg></svg></svg></svg><svg width="71" height="8" xmlns="http://www.w3.org/2000/svg" xmlns:xlink="http://www.w3.org/1999/xlink" xmlns:svgjs="http://svgjs.com/svgjs" viewBox="0 0.5 71 7" fill="#ecf9fd" x="64" y="844"><svg xmlns="http://www.w3.org/2000/svg" width="71" height="8" viewBox="0 0.806 71 7"><path paint-order="stroke fill markers" fill-rule="evenodd" d="M35.5 7.806C15.868 7.806 0 6.242 0 4.306c0-1.935 15.868-3.5 35.5-3.5C55.13.806 71 2.371 71 4.306c0 1.936-15.869 3.5-35.5 3.5z"/></svg></svg></svg>