<?xml version="1.0" encoding="iso-8859-1"?>
<!-- Generator: Adobe Illustrator 19.0.0, SVG Export Plug-In . SVG Version: 6.00 Build 0)  -->
<svg xmlns="http://www.w3.org/2000/svg" xmlns:xlink="http://www.w3.org/1999/xlink" version="1.1" id="Layer_1" x="0px" y="0px" viewBox="0 0 410.95 410.95" style="enable-background:new 0 0 410.95 410.95;" xml:space="preserve" width="512" height="512">
<g>
	<rect x="20.25" y="195.744" style="fill:#4288BC;" width="373.35" height="214.71"/>
	<rect x="20.25" y="187.244" style="fill:#3679A3;" width="373.35" height="26"/>
	<rect x="281.287" y="244.983" style="fill:#808080;" width="88.269" height="68.773"/>
	<rect x="44.3" y="244.984" style="fill:#2BA5F7;" width="88.27" height="68.77"/>
	<polygon style="fill:#8FD3F9;" points="132.57,244.984 132.57,313.754 87,313.754 102.47,244.984  "/>
	<path style="fill:#3679A3;" d="M137.568,318.756H39.299v-78.772h98.269V318.756z M49.299,308.756h78.269v-58.772H49.299V308.756z"/>
	<rect x="159.055" y="244.983" style="fill:#E6E6E6;" width="95.744" height="165.472"/>
	<polygon style="fill:#3679A3;" points="260.299,410.456 249.299,410.456 249.299,250.483 164.555,250.483 164.555,410.456    153.555,410.456 153.555,239.483 260.299,239.483  "/>
	<path style="fill:#666666;" d="M192.107,338.405h-13.502c-3.038,0-5.5-2.462-5.5-5.5s2.462-5.5,5.5-5.5h13.502   c3.038,0,5.5,2.462,5.5,5.5S195.145,338.405,192.107,338.405z"/>
	<path style="fill:#666666;" d="M369.556,274.37h-23.135v-29.386c0-2.761-2.239-5-5-5s-5,2.239-5,5v29.386h-22v-29.386   c0-2.761-2.239-5-5-5s-5,2.239-5,5v29.386h-23.134c-2.761,0-5,2.239-5,5s2.239,5,5,5h23.134v29.386c0,2.761,2.239,5,5,5   s5-2.239,5-5V284.37h22v29.386c0,2.761,2.239,5,5,5s5-2.239,5-5V284.37h23.135c2.761,0,5-2.239,5-5S372.317,274.37,369.556,274.37z   "/>
	<path style="fill:#3679A3;" d="M374.556,318.756h-98.269v-78.772h98.269V318.756z M286.287,308.756h78.269v-58.772h-78.269V308.756   z"/>
	<polygon style="fill:#E6E6E6;" points="410.95,81.584 410.95,195.744 393.6,195.744 393.6,195.734 20.25,195.734 20.25,195.744    6.21,195.744 6.21,87.114 6.22,87.104  "/>
	<path style="fill:#4288BC;" d="M120,60.494c0,7.42-1.35,14.53-3.81,21.09c-8.54,22.74-30.47,38.91-56.19,38.91   c-23.58,0-43.98-13.6-53.78-33.39C2.24,79.084,0,70.054,0,60.494c0-33.14,26.86-60,60-60S120,27.354,120,60.494z"/>
	<g>
		<path style="fill:#4288BC;" d="M183.167,165.18c-11.525,0-20.901-9.376-20.901-20.901v-11.238    c0-11.525,9.376-20.901,20.901-20.901c11.524,0,20.9,9.376,20.9,20.901v11.238C204.068,155.804,194.692,165.18,183.167,165.18z     M183.167,123.141c-5.459,0-9.901,4.441-9.901,9.901v11.238c0,5.459,4.441,9.901,9.901,9.901c5.459,0,9.9-4.441,9.9-9.901v-11.238    C193.068,127.583,188.626,123.141,183.167,123.141z"/>
		<path style="fill:#4288BC;" d="M317.55,165.18c-11.525,0-20.901-9.376-20.901-20.901v-11.238c0-11.525,9.376-20.901,20.901-20.901    c6.954,0,13.432,3.443,17.328,9.211c1.7,2.517,1.038,5.936-1.479,7.636c-2.517,1.701-5.936,1.039-7.637-1.479    c-1.848-2.736-4.918-4.369-8.213-4.369c-5.459,0-9.901,4.441-9.901,9.901v11.238c0,5.459,4.441,9.901,9.901,9.901    c3.989,0,7.571-2.374,9.125-6.049c1.183-2.798,4.41-4.105,7.208-2.923c2.797,1.183,4.106,4.41,2.923,7.208    C333.526,160.17,325.968,165.18,317.55,165.18z"/>
		<g>
			<path style="fill:#4288BC;" d="M243.851,165.18h-18.017c-3.038,0-5.5-2.462-5.5-5.5v-42.039c0-3.038,2.462-5.5,5.5-5.5     s5.5,2.462,5.5,5.5v36.539h12.517c3.038,0,5.5,2.462,5.5,5.5S246.889,165.18,243.851,165.18z"/>
		</g>
		<g>
			<path style="fill:#4288BC;" d="M269.523,165.18c-3.038,0-5.5-2.462-5.5-5.5v-42.039c0-3.038,2.462-5.5,5.5-5.5s5.5,2.462,5.5,5.5     v42.039C275.023,162.718,272.561,165.18,269.523,165.18z"/>
		</g>
		<g>
			<path style="fill:#4288BC;" d="M375.889,165.18h-18.017c-3.038,0-5.5-2.462-5.5-5.5v-42.039c0-3.038,2.462-5.5,5.5-5.5h18.017     c3.038,0,5.5,2.462,5.5,5.5s-2.462,5.5-5.5,5.5h-12.517v31.039h12.517c3.038,0,5.5,2.462,5.5,5.5S378.927,165.18,375.889,165.18z     "/>
			<path style="fill:#4288BC;" d="M372.286,144.461h-14.414c-3.038,0-5.5-2.462-5.5-5.5s2.462-5.5,5.5-5.5h14.414     c3.038,0,5.5,2.462,5.5,5.5S375.324,144.461,372.286,144.461z"/>
		</g>
		<g>
			<path style="fill:#4288BC;" d="M121.793,165.18c-3.038,0-5.5-2.462-5.5-5.5v-42.039c0-3.038,2.462-5.5,5.5-5.5h10.51     c9.324,0,16.91,7.586,16.91,16.91s-7.586,16.911-16.91,16.911h-5.01v13.718C127.293,162.718,124.831,165.18,121.793,165.18z      M127.293,134.962h5.01c3.259,0,5.91-2.651,5.91-5.91c0-3.259-2.651-5.911-5.91-5.911h-5.01V134.962z"/>
		</g>
	</g>
	<polygon style="fill:#FCCC8B;" points="60.001,12.649 76.346,39.733 107.156,46.909 86.447,70.823 89.144,102.342 60.001,90.037    30.858,102.342 33.555,70.823 12.847,46.909 43.657,39.733  "/>
</g>















</svg>
