<?xml version="1.0" encoding="iso-8859-1"?>
<!-- Generator: Adobe Illustrator 19.0.0, SVG Export Plug-In . SVG Version: 6.00 Build 0)  -->
<svg version="1.1" id="Layer_1" xmlns="http://www.w3.org/2000/svg" xmlns:xlink="http://www.w3.org/1999/xlink" x="0px" y="0px"
	 viewBox="0 0 512 512" style="enable-background:new 0 0 512 512;" xml:space="preserve">
<g>
	<g>
		<g>
			<path d="M481.53,335.288C450.427,238.601,360.298,171.002,256,171.002c-104.242,0-194.41,67.548-225.53,164.286
				c-1.3,4.041-1.3,8.387,0,12.427C61.573,444.401,151.703,512,256,512c104.175,0,194.392-67.494,225.53-164.285
				C482.83,343.675,482.83,339.329,481.53,335.288z M256,471.419c-85.653,0-157.79-54.616-184.786-129.917
				C98.215,266.182,170.365,211.584,256,211.584c85.653,0,157.79,54.617,184.785,129.917
				C413.785,416.819,341.634,471.419,256,471.419z"/>
			<path d="M256,235.182c-58.625,0-106.321,47.694-106.321,106.319c0,58.625,47.695,106.319,106.321,106.319
				s106.321-47.694,106.321-106.319C362.321,282.876,314.625,235.182,256,235.182z M256,407.239
				c-36.249,0-65.739-29.491-65.739-65.738s29.491-65.738,65.739-65.738s65.739,29.491,65.739,65.738S292.249,407.239,256,407.239z"
				/>
			<circle cx="256.001" cy="341.507" r="38.201"/>
			<path d="M256.001,122.16c11.206,0,20.291-9.085,20.291-20.291V20.291C276.292,9.085,267.207,0,256.001,0
				c-11.206,0-20.291,9.085-20.291,20.291v81.578C235.711,113.076,244.795,122.16,256.001,122.16z"/>
			<path d="M119.458,166.832c7.923,7.924,20.771,7.924,28.695,0c7.924-7.923,7.924-20.771,0-28.695L90.47,80.451
				c-7.922-7.924-20.77-7.924-28.695,0c-7.924,7.924-7.924,20.771,0,28.695L119.458,166.832z"/>
			<path d="M392.547,166.832l57.684-57.685c7.924-7.924,7.924-20.771,0-28.695c-7.923-7.924-20.771-7.924-28.695,0l-57.684,57.685
				c-7.924,7.924-7.924,20.771,0,28.695C371.775,174.755,384.624,174.756,392.547,166.832z"/>
		</g>
	</g>
</g>
<g>
</g>
<g>
</g>
<g>
</g>
<g>
</g>
<g>
</g>
<g>
</g>
<g>
</g>
<g>
</g>
<g>
</g>
<g>
</g>
<g>
</g>
<g>
</g>
<g>
</g>
<g>
</g>
<g>
</g>
</svg>
