<?xml version="1.0" encoding="iso-8859-1"?>
<!-- Generator: Adobe Illustrator 19.0.0, SVG Export Plug-In . SVG Version: 6.00 Build 0)  -->
<svg version="1.1" id="Layer_1" xmlns="http://www.w3.org/2000/svg" xmlns:xlink="http://www.w3.org/1999/xlink" x="0px" y="0px"
	 viewBox="0 0 512 512" style="enable-background:new 0 0 512 512;" xml:space="preserve">
<g transform="translate(1 1)">
	<g>
		<g>
			<path d="M487.107,496.493l-57.742-57.742l55.182-27.591L334.36,355.693l55.467,150.187l27.591-55.182l57.742,57.742
				c1.707,1.707,3.413,2.56,5.973,2.56s4.267-0.853,5.973-2.56C490.52,505.027,490.52,499.907,487.107,496.493z M362.52,383.853
				l78.507,29.013l-33.28,16.213l-16.213,33.28L362.52,383.853z"/>
			<path d="M71.533,50.2c-9.387,0-17.067,7.68-17.067,17.067V459.8c0,9.387,7.68,17.067,17.067,17.067h264.533
				c5.12,0,8.533-3.413,8.533-8.533s-3.413-8.533-8.533-8.533H71.533V67.267h85.333c0,9.387,7.68,17.067,17.067,17.067H293.4
				c9.387,0,17.067-7.68,17.067-17.067H395.8V331.8c0,5.12,3.413,8.533,8.533,8.533c5.12,0,8.533-3.413,8.533-8.533V67.267
				c0-9.387-7.68-17.067-17.067-17.067h-85.333V33.133H421.4c5.12,0,8.533,3.413,8.533,8.533V331.8c0,5.12,3.413,8.533,8.533,8.533
				S447,336.92,447,331.8V41.667c0-14.507-11.093-25.6-25.6-25.6H310.467C310.467,6.68,302.787-1,293.4-1H173.933
				c-9.387,0-17.067,7.68-17.067,17.067H45.933c-14.507,0-25.6,11.093-25.6,25.6V485.4c0,14.507,11.093,25.6,25.6,25.6h290.133
				c5.12,0,8.533-3.413,8.533-8.533s-3.413-8.533-8.533-8.533H45.933c-5.12,0-8.533-3.413-8.533-8.533V41.667
				c0-5.12,3.413-8.533,8.533-8.533h110.933V50.2H71.533z M173.933,16.067H293.4V24.6v34.133v8.533H173.933v-8.533V24.6V16.067z"/>
			<path d="M301.933,280.6c15.829,0,29.232-10.921,33.046-25.6h13.034c12.8,0,22.187-9.387,23.04-22.187v-33.28
				c0-12.8-10.24-22.187-22.187-22.187h-18.176l-33.024-46.08c-5.12-7.68-13.653-11.947-23.04-11.947h-36.925
				c-1.169-0.55-2.525-0.853-4.035-0.853s-2.865,0.304-4.035,0.853h-36.925c-9.387,0-17.92,4.267-23.04,11.947l-33.024,46.08H119.32
				c-12.8,0-22.187,10.24-22.187,22.187v33.28c0,12.8,9.387,22.187,22.187,22.187h13.034c3.814,14.679,17.216,25.6,33.046,25.6
				c15.829,0,29.232-10.921,33.046-25.6h70.442C272.702,269.679,286.104,280.6,301.933,280.6z M301.933,263.533
				c-9.387,0-17.067-7.68-17.067-17.067s7.68-17.067,17.067-17.067S319,237.08,319,246.467S311.32,263.533,301.933,263.533z
				 M283.16,139.8l26.7,37.547H242.2v-41.813h31.573C278.04,135.533,281.453,137.24,283.16,139.8z M182.467,139.8
				c2.56-2.56,5.973-4.267,9.387-4.267h33.28v41.813h-68.532L182.467,139.8z M165.4,263.533c-9.387,0-17.067-7.68-17.067-17.067
				s7.68-17.067,17.067-17.067c9.387,0,17.067,7.68,17.067,17.067S174.787,263.533,165.4,263.533z M166.253,212.333
				c-0.156,0-0.309,0.008-0.464,0.01c-0.13-0.001-0.258-0.01-0.389-0.01c-15.83,0-29.232,10.921-33.046,25.6H119.32
				c-2.56,0-5.12-2.56-5.12-5.12v-33.28c0-2.56,2.56-5.12,5.12-5.12h16.642c1.132,0.538,2.405,0.853,3.838,0.853h187.733
				c1.433,0,2.706-0.315,3.838-0.853h17.495c2.56,0,5.12,2.56,5.12,5.12v33.28c0,2.56-2.56,5.12-5.12,5.12h-13.653
				c-4.267-14.507-15.36-25.6-31.573-25.6c-0.311,0-0.62,0.012-0.929,0.02c-0.259-0.006-0.517-0.02-0.778-0.02
				c-15.83,0-29.232,10.921-33.046,25.6h-69.354C195.267,223.427,182.467,212.333,166.253,212.333z"/>
			<path d="M233.667,323.267h-128c-5.12,0-8.533,3.413-8.533,8.533c0,5.12,3.413,8.533,8.533,8.533h128
				c5.12,0,8.533-3.413,8.533-8.533C242.2,326.68,238.787,323.267,233.667,323.267z"/>
			<path d="M233.667,365.933h-128c-5.12,0-8.533,3.413-8.533,8.533s3.413,8.533,8.533,8.533h128c5.12,0,8.533-3.413,8.533-8.533
				S238.787,365.933,233.667,365.933z"/>
			<path d="M233.667,408.6h-128c-5.12,0-8.533,3.413-8.533,8.533s3.413,8.533,8.533,8.533h128c5.12,0,8.533-3.413,8.533-8.533
				S238.787,408.6,233.667,408.6z"/>
		</g>
	</g>
</g>
<g>
</g>
<g>
</g>
<g>
</g>
<g>
</g>
<g>
</g>
<g>
</g>
<g>
</g>
<g>
</g>
<g>
</g>
<g>
</g>
<g>
</g>
<g>
</g>
<g>
</g>
<g>
</g>
<g>
</g>
</svg>
